<?xml version="1.0" encoding="utf-8"?>
<svg xmlns="http://www.w3.org/2000/svg" xmlns:xlink="http://www.w3.org/1999/xlink" x="0px" y="0px" viewBox="0 0 24 24">
	<style type="text/css">
		.a {
			fill: #2E3134;
		}
		.b {
			clip-path: url(#XMLID_8_);
		}
	</style>
	<path id="Fill_1_1_" class="a" d="M14.4,1c0,0-1.1,0.9-1.1,2.9c0,2.9,2.3,4,4.1,5.2c4.1,2.7,4.3,8.6,0.8,11.8
		C16.9,22,14.8,23,12.8,23c-2,0-4.1-0.9-5.3-1.9c-1.6-1.3-2.8-3-3.2-4.9c-0.4-1.8-0.6-4.4,1.6-7c0.5,1.3,1,2.8,3.6,3.6
		C9,12,8.2,10.6,8.2,8.6C8.2,6.6,9.4,2.2,14.4,1z M12.4,2.9C10,4.4,9.2,7.1,9.2,8.6c0,1.6,0.6,2.8,1,3.6l0.1,0.2
		c0.2,0.4,0.1,0.8-0.1,1.1c-0.2,0.2-0.5,0.4-0.8,0.4c-0.1,0-0.2,0-0.3,0c-1.9-0.6-2.9-1.5-3.5-2.5c-0.7,1.4-0.9,3-0.4,4.7
		c0.4,1.7,1.4,3.2,2.9,4.4c1,0.8,2.9,1.6,4.7,1.6c1.8,0,3.7-1,4.7-1.9c1.5-1.4,2.3-3.3,2.1-5.4c-0.1-2-1.2-3.8-2.8-4.8
		c-0.2-0.1-0.4-0.3-0.6-0.4c-1.7-1.1-3.9-2.6-3.9-5.7C12.3,3.5,12.4,3.2,12.4,2.9z"/>
	<g id="XMLID_2_">
		<defs>
			<path id="XMLID_3_" d="M14.4,1c0,0-1.1,0.9-1.1,2.9c0,2.9,2.3,4,4.1,5.2c4.1,2.7,4.3,8.6,0.8,11.8C16.9,22,14.8,23,12.8,23
				c-2,0-4.1-0.9-5.3-1.9c-1.6-1.3-2.8-3-3.2-4.9c-0.4-1.8-0.6-4.4,1.6-7c0.5,1.3,1,2.8,3.6,3.6C9,12,8.2,10.6,8.2,8.6
				C8.2,6.6,9.4,2.2,14.4,1z M12.4,2.9C10,4.4,9.2,7.1,9.2,8.6c0,1.6,0.6,2.8,1,3.6l0.1,0.2c0.2,0.4,0.1,0.8-0.1,1.1
				c-0.2,0.2-0.5,0.4-0.8,0.4c-0.1,0-0.2,0-0.3,0c-1.9-0.6-2.9-1.5-3.5-2.5c-0.7,1.4-0.9,3-0.4,4.7c0.4,1.7,1.4,3.2,2.9,4.4
				c1,0.8,2.9,1.6,4.7,1.6c1.8,0,3.7-1,4.7-1.9c1.5-1.4,2.3-3.3,2.1-5.4c-0.1-2-1.2-3.8-2.8-4.8c-0.2-0.1-0.4-0.3-0.6-0.4
				c-1.7-1.1-3.9-2.6-3.9-5.7C12.3,3.5,12.4,3.2,12.4,2.9z"/>
		</defs>
		<clipPath id="XMLID_8_">
			<use xlink:href="#XMLID_3_"  style="overflow:visible;"/>
		</clipPath>
		<g id="Mask_by_Fill_1" class="b">
			<g id="Select_Color">
				<path id="Rectangle_4_1_" class="a" d="M0,0h24v24H0V0z"/>
			</g>
		</g>
	</g>
</svg>
