<?xml version="1.0" encoding="utf-8"?>
<svg xmlns="http://www.w3.org/2000/svg" xmlns:xlink="http://www.w3.org/1999/xlink" x="0px" y="0px" viewBox="0 0 24 24">
	<style type="text/css">
		.a {
			fill: #2E3134;
		}
		.b {
			clip-path: url(#SVGID_2_);
		}
	</style>
	<path id="Fill_1_2_" class="a" d="M9.7,14.9c-0.2,0.2-0.4,0.3-0.7,0.3c-0.2,0-0.5,0-0.8-0.3C8.1,14.7,8,14.4,8,14.2
		c0-0.3,0.1-0.5,0.3-0.6l5-4.4C13.5,9,13.7,8.9,14,8.9c0.2,0,0.5,0,0.8,0.3C14.9,9.4,15,9.6,15,9.9c0,0.3-0.1,0.5-0.3,0.6L9.7,14.9z
		M14,7.9c-0.5,0-1,0.2-1.3,0.5l-5,4.4C7.3,13.1,7,13.6,7,14.1c0,0.5,0.2,1,0.5,1.4C7.9,16,8.5,16.2,9,16.2c0.5,0,1-0.2,1.3-0.5
		l5-4.4C15.7,11,16,10.5,16,10c0-0.5-0.2-1-0.5-1.4C15.1,8.1,14.5,7.9,14,7.9z M14.3,14.9l-2.3,2c-0.8,0.7-1.9,1.1-3,1.1
		s-2.1-0.4-3-1.1l-0.2-0.1L5,17.6l0.2,0.2c1,0.9,2.4,1.4,3.8,1.4c1.4,0,2.7-0.5,3.7-1.4l2.3-2L14.3,14.9z M18.7,15l-5,4.4
		c-1.3,1.1-2.9,1.8-4.7,1.8c-2,0-3.9-0.8-5.2-2.3c-1.3-1.4-1.9-3.1-1.8-4.9c0.1-1.8,0.9-3.5,2.3-4.7l5-4.4C10.6,3.6,12.2,3,14,3
		c2,0,3.9,0.8,5.2,2.3c1.3,1.4,1.9,3.1,1.8,4.9C20.9,12,20.1,13.7,18.7,15z M8.6,4l-5,4.4C2.1,9.8,1.1,11.7,1,13.8
		c-0.1,2.1,0.6,4.1,2,5.7c1.5,1.7,3.7,2.6,6,2.6c2,0,3.9-0.7,5.4-2l5-4.4c1.6-1.4,2.5-3.3,2.6-5.4c0.1-2.1-0.6-4.1-2-5.7
		C18.4,2.9,16.3,2,14,2C12,2,10.1,2.7,8.6,4z"/>
	<g>
		<defs>
			<path id="SVGID_1_" d="M9.7,14.9c-0.2,0.2-0.4,0.3-0.7,0.3c-0.2,0-0.5,0-0.8-0.3C8.1,14.7,8,14.4,8,14.2c0-0.3,0.1-0.5,0.3-0.6
				l5-4.4C13.5,9,13.7,8.9,14,8.9c0.2,0,0.5,0,0.8,0.3C14.9,9.4,15,9.6,15,9.9c0,0.3-0.1,0.5-0.3,0.6L9.7,14.9z M14,7.9
				c-0.5,0-1,0.2-1.3,0.5l-5,4.4C7.3,13.1,7,13.6,7,14.1c0,0.5,0.2,1,0.5,1.4C7.9,16,8.5,16.2,9,16.2c0.5,0,1-0.2,1.3-0.5l5-4.4
				C15.7,11,16,10.5,16,10c0-0.5-0.2-1-0.5-1.4C15.1,8.1,14.5,7.9,14,7.9z M14.3,14.9l-2.3,2c-0.8,0.7-1.9,1.1-3,1.1s-2.1-0.4-3-1.1
				l-0.2-0.1L5,17.6l0.2,0.2c1,0.9,2.4,1.4,3.8,1.4c1.4,0,2.7-0.5,3.7-1.4l2.3-2L14.3,14.9z M18.7,15l-5,4.4
				c-1.3,1.1-2.9,1.8-4.7,1.8c-2,0-3.9-0.8-5.2-2.3c-1.3-1.4-1.9-3.1-1.8-4.9c0.1-1.8,0.9-3.5,2.3-4.7l5-4.4C10.6,3.6,12.2,3,14,3
				c2,0,3.9,0.8,5.2,2.3c1.3,1.4,1.9,3.1,1.8,4.9C20.9,12,20.1,13.7,18.7,15z M8.6,4l-5,4.4C2.1,9.8,1.1,11.7,1,13.8
				c-0.1,2.1,0.6,4.1,2,5.7c1.5,1.7,3.7,2.6,6,2.6c2,0,3.9-0.7,5.4-2l5-4.4c1.6-1.4,2.5-3.3,2.6-5.4c0.1-2.1-0.6-4.1-2-5.7
				C18.4,2.9,16.3,2,14,2C12,2,10.1,2.7,8.6,4z"/>
		</defs>
		<clipPath id="SVGID_2_">
			<use xlink:href="#SVGID_1_"  style="overflow:visible;"/>
		</clipPath>
		<g id="Mask_by_Fill_1_1_" class="b">
			<g id="Select_Color_3_">
				<path id="Rectangle_4_6_" class="a" d="M0,0h24v24H0V0z"/>
			</g>
		</g>
	</g>
</svg>
