<?xml version="1.0" encoding="utf-8"?>
<svg xmlns="http://www.w3.org/2000/svg" xmlns:xlink="http://www.w3.org/1999/xlink" x="0px" y="0px" viewBox="0 0 24 24">
	<style type="text/css">
		.a {
			fill: #2E3134;
		}
		.b {
			clip-path: url(#SVGID_2_);
		}
	</style>
	<path id="Page_1_1_" class="a" d="M12,5c-4.4,0-8,3.6-8,8s3.6,8,8,8s8-3.6,8-8S16.4,5,12,5z M12,22c-5,0-9-4-9-9s4-9,9-9
		c2.2,0,4.2,0.8,5.8,2.1l1.4-1.4L20,5.4l-1.4,1.4C20.1,8.4,21,10.6,21,13C21,18,17,22,12,22z M9,2h6v1H9V2z M11.5,8h1v6h-1V8z"/>
	<g>
		<defs>
			<path id="SVGID_1_" d="M12,5c-4.4,0-8,3.6-8,8s3.6,8,8,8s8-3.6,8-8S16.4,5,12,5z M12,22c-5,0-9-4-9-9s4-9,9-9
				c2.2,0,4.2,0.8,5.8,2.1l1.4-1.4L20,5.4l-1.4,1.4C20.1,8.4,21,10.6,21,13C21,18,17,22,12,22z M9,2h6v1H9V2z M11.5,8h1v6h-1V8z"/>
		</defs>
		<clipPath id="SVGID_2_">
			<use xlink:href="#SVGID_1_"  style="overflow:visible;"/>
		</clipPath>
		<g id="Mask_by_Page_1" class="b">
			<g id="Select_Color_1_">
				<path id="Rectangle_4_2_" class="a" d="M0,0h24v24H0V0z"/>
			</g>
		</g>
	</g>
</svg>
